<svg width="1004" height="270" viewBox="0 0 1004 270" fill="none" xmlns="http://www.w3.org/2000/svg">
<rect width="1004" height="270" rx="10" fill="#3B5EDA"/>
<path d="M360.882 175.69C356.491 175.538 352.959 174.756 350.284 173.343C347.609 171.93 345.54 169.987 344.076 167.514C342.663 165.041 341.477 161.836 340.519 157.9C339.358 153.005 338.777 147.453 338.777 141.246C338.777 135.039 339.358 129.487 340.519 124.592C341.477 120.605 342.663 117.375 344.076 114.902C345.54 112.43 347.609 110.512 350.284 109.149C352.959 107.736 356.491 106.954 360.882 106.802L360.806 115.281C357.122 115.382 354.397 116.467 352.631 118.536C350.864 120.555 349.653 123.28 348.997 126.712C348.089 131.708 347.634 136.553 347.634 141.246C347.634 145.939 348.089 150.784 348.997 155.78C349.653 159.212 350.864 161.963 352.631 164.032C354.397 166.05 357.122 167.11 360.806 167.211L360.882 175.69ZM788.519 167.211C792.203 167.11 794.928 166.05 796.695 164.032C798.461 161.963 799.672 159.212 800.328 155.78C801.237 150.784 801.691 145.939 801.691 141.246C801.691 136.553 801.237 131.708 800.328 126.712C799.672 123.28 798.461 120.555 796.695 118.536C794.928 116.467 792.203 115.382 788.519 115.281L788.443 106.802C792.834 106.954 796.367 107.736 799.042 109.149C801.716 110.512 803.76 112.43 805.173 114.902C806.637 117.375 807.848 120.605 808.807 124.592C809.968 129.487 810.548 135.039 810.548 141.246C810.548 147.453 809.968 153.005 808.807 157.9C807.848 161.836 806.637 165.041 805.173 167.514C803.76 169.987 801.716 171.93 799.042 173.343C796.367 174.756 792.834 175.538 788.443 175.69L788.519 167.211Z" fill="#FEF9ED" fill-opacity="0.75"/>
<path d="M389.543 162.366H386.969L374.1 126.485H383.487L392.949 155.553H393.328L402.639 126.485H412.177L392.495 182.276H382.957L389.543 162.366ZM420.929 126.485H430.164V131.935H430.77C432.183 129.462 433.646 127.771 435.16 126.863C436.674 125.955 438.819 125.5 441.595 125.5C445.43 125.5 448.383 125.98 450.452 126.939C452.521 127.847 453.984 129.412 454.842 131.632C455.751 133.802 456.205 136.931 456.205 141.019V166H446.97V140.868C446.97 138.092 446.44 136.199 445.38 135.19C444.37 134.181 442.453 133.676 439.627 133.676C437.154 133.676 435.236 134.029 433.873 134.736C432.561 135.442 431.602 136.654 430.997 138.369C430.442 140.035 430.164 142.407 430.164 145.485V166H420.929V126.485ZM480.172 166.681C476.488 166.681 473.637 166.328 471.618 165.621C469.65 164.864 468.237 163.628 467.379 161.912C466.572 160.146 466.168 157.673 466.168 154.494C466.168 150.759 466.748 147.882 467.909 145.864C469.07 143.795 471.038 142.331 473.813 141.473C476.589 140.615 480.526 140.186 485.623 140.186H491.603V139.732C491.603 137.209 491.048 135.493 489.938 134.584C488.827 133.676 486.733 133.222 483.655 133.222C480.879 133.222 478.986 133.6 477.977 134.357C477.018 135.064 476.589 136.452 476.69 138.521H467.455C467.303 135.089 467.682 132.465 468.59 130.648C469.549 128.781 471.189 127.469 473.511 126.712C475.883 125.904 479.264 125.5 483.655 125.5C488.045 125.5 491.426 125.929 493.798 126.787C496.221 127.645 497.937 129.084 498.946 131.102C499.955 133.121 500.46 135.998 500.46 139.732V166H491.83V161.307H491.225C489.811 163.376 488.323 164.789 486.758 165.546C485.194 166.303 482.998 166.681 480.172 166.681ZM475.403 153.812C475.403 155.73 475.832 157.042 476.69 157.749C477.599 158.455 479.289 158.808 481.762 158.808C484.285 158.808 486.228 158.48 487.591 157.824C488.954 157.168 489.912 156.058 490.468 154.494C491.073 152.929 491.426 150.683 491.527 147.756L484.033 147.832C481.762 147.882 479.996 148.084 478.734 148.438C477.523 148.791 476.665 149.396 476.16 150.254C475.656 151.062 475.403 152.248 475.403 153.812ZM532.149 166.757C529.676 166.757 527.682 166.429 526.168 165.773C524.705 165.066 523.14 163.754 521.475 161.836H520.869V166H511.71L511.785 110.89H520.945L520.869 129.513H521.475C522.838 127.645 524.276 126.358 525.79 125.652C527.304 124.945 529.424 124.592 532.149 124.592C536.489 124.592 539.82 125.223 542.141 126.485C544.513 127.746 546.179 129.891 547.137 132.919C548.147 135.897 548.651 140.136 548.651 145.637C548.651 151.188 548.147 155.478 547.137 158.506C546.179 161.483 544.513 163.603 542.141 164.864C539.82 166.126 536.489 166.757 532.149 166.757ZM520.718 145.637C520.718 149.068 520.97 151.743 521.475 153.661C522.03 155.528 522.939 156.866 524.2 157.673C525.462 158.43 527.253 158.808 529.575 158.808C532.149 158.808 534.117 158.43 535.48 157.673C536.893 156.866 537.877 155.528 538.432 153.661C539.037 151.794 539.34 149.119 539.34 145.637C539.34 142.205 539.037 139.555 538.432 137.688C537.877 135.821 536.893 134.509 535.48 133.752C534.117 132.944 532.149 132.541 529.575 132.541C527.253 132.541 525.462 132.944 524.2 133.752C522.939 134.509 522.03 135.821 521.475 137.688C520.97 139.555 520.718 142.205 520.718 145.637ZM560.28 139.278H589.046V147.605H560.28V139.278ZM598.857 126.485H607.411V131.329H608.017C609.077 129.058 610.086 127.519 611.045 126.712C612.054 125.904 613.442 125.5 615.208 125.5C617.58 125.5 619.422 125.955 620.734 126.863C622.047 127.721 623.005 129.21 623.611 131.329H623.687C624.393 129.058 625.276 127.519 626.336 126.712C627.447 125.904 629.162 125.5 631.484 125.5C634.007 125.5 635.95 125.98 637.313 126.939C638.726 127.847 639.71 129.386 640.265 131.556C640.871 133.726 641.174 136.83 641.174 140.868V166H632.392V142.23C632.392 138.899 632.115 136.654 631.56 135.493C631.004 134.282 629.995 133.676 628.532 133.676C627.472 133.676 626.639 133.979 626.033 134.584C625.478 135.14 625.075 136.098 624.822 137.461C624.57 138.824 624.444 140.767 624.444 143.29V166H615.663L615.814 142.23C615.864 139 615.562 136.78 614.906 135.569C614.25 134.307 613.164 133.676 611.65 133.676C610.591 133.676 609.758 133.979 609.152 134.584C608.597 135.19 608.193 136.199 607.941 137.612C607.739 139.026 607.638 141.044 607.638 143.668V166H598.857V126.485ZM665.444 166.681C660.548 166.681 656.763 166.076 654.089 164.864C651.414 163.603 649.496 161.534 648.335 158.657C647.225 155.73 646.67 151.567 646.67 146.167C646.67 140.716 647.225 136.527 648.335 133.6C649.496 130.673 651.389 128.604 654.013 127.393C656.688 126.131 660.498 125.5 665.444 125.5C670.389 125.5 674.174 126.131 676.799 127.393C679.473 128.604 681.366 130.673 682.476 133.6C683.637 136.527 684.217 140.716 684.217 146.167C684.217 151.567 683.637 155.73 682.476 158.657C681.366 161.534 679.473 163.603 676.799 164.864C674.124 166.076 670.339 166.681 665.444 166.681ZM655.906 146.167C655.906 149.497 656.183 152.071 656.738 153.888C657.344 155.654 658.303 156.916 659.615 157.673C660.977 158.43 662.92 158.808 665.444 158.808C667.967 158.808 669.885 158.43 671.197 157.673C672.56 156.916 673.518 155.654 674.074 153.888C674.679 152.071 674.982 149.497 674.982 146.167C674.982 142.785 674.679 140.186 674.074 138.369C673.518 136.553 672.56 135.266 671.197 134.509C669.885 133.701 667.967 133.298 665.444 133.298C662.92 133.298 660.977 133.701 659.615 134.509C658.303 135.266 657.344 136.553 656.738 138.369C656.183 140.186 655.906 142.785 655.906 146.167ZM707.806 166.757C703.517 166.757 700.186 166.151 697.814 164.94C695.492 163.679 693.827 161.584 692.818 158.657C691.859 155.68 691.379 151.466 691.379 146.015C691.379 140.615 691.859 136.477 692.818 133.6C693.827 130.673 695.492 128.604 697.814 127.393C700.186 126.131 703.517 125.5 707.806 125.5C711.137 125.5 713.559 125.828 715.073 126.485C716.587 127.141 717.748 128.377 718.556 130.194H719.161V110.89H728.321V166H719.161V161.912H718.556C717.395 163.779 716.058 165.066 714.544 165.773C713.08 166.429 710.834 166.757 707.806 166.757ZM700.69 146.015C700.69 149.346 700.968 151.945 701.523 153.812C702.129 155.629 703.113 156.916 704.475 157.673C705.889 158.43 707.882 158.808 710.456 158.808C712.777 158.808 714.569 158.43 715.83 157.673C717.092 156.866 717.975 155.553 718.48 153.737C719.035 151.92 719.313 149.346 719.313 146.015C719.313 142.684 719.035 140.136 718.48 138.369C717.975 136.553 717.092 135.266 715.83 134.509C714.569 133.752 712.777 133.373 710.456 133.373C707.882 133.373 705.889 133.752 704.475 134.509C703.113 135.266 702.129 136.553 701.523 138.369C700.968 140.136 700.69 142.684 700.69 146.015ZM756.906 166.681C751.96 166.681 748.15 166.076 745.475 164.864C742.801 163.603 740.883 161.483 739.722 158.506C738.612 155.528 738.057 151.314 738.057 145.864C738.057 140.514 738.587 136.401 739.646 133.525C740.757 130.598 742.599 128.528 745.173 127.317C747.797 126.106 751.506 125.5 756.3 125.5C760.893 125.5 764.476 126.156 767.05 127.469C769.624 128.73 771.466 130.875 772.576 133.903C773.737 136.881 774.317 141.095 774.317 146.545L774.241 149.497H747.368C747.57 151.97 747.973 153.888 748.579 155.251C749.185 156.563 750.118 157.496 751.38 158.051C752.692 158.607 754.509 158.884 756.83 158.884C759.101 158.884 760.742 158.531 761.751 157.824C762.811 157.118 763.643 155.806 764.249 153.888H773.636C773.131 157.219 772.298 159.793 771.138 161.609C769.977 163.426 768.286 164.738 766.066 165.546C763.845 166.303 760.792 166.681 756.906 166.681ZM765.233 142.306C765.233 138.874 764.552 136.527 763.189 135.266C761.877 133.954 759.581 133.298 756.3 133.298C753.121 133.298 750.85 133.954 749.487 135.266C748.125 136.578 747.444 138.925 747.444 142.306H765.233Z" fill="#FEF9ED"/>
<g clip-path="url(#clip0_1_2)">
<path d="M274.769 130.236H252.845C252.38 130.236 251.799 130.558 251.558 130.951L238.419 152.341C238.178 152.734 237.785 152.732 237.544 152.341L224.544 130.955C224.305 130.562 223.727 130.238 223.261 130.238H201.235C200.769 130.238 200.599 130.55 200.859 130.932L226.832 169.123C227.092 169.504 227.303 170.194 227.303 170.652V193.579C227.303 194.037 227.685 194.413 228.15 194.413H247.845C248.31 194.413 248.692 194.037 248.692 193.579V170.652C248.692 170.194 248.905 169.504 249.164 169.123L275.143 130.932C275.403 130.552 275.232 130.238 274.767 130.238L274.769 130.236Z" fill="#FEF9ED"/>
<path d="M236.495 97.1942C237.067 97.5075 237.622 97.7619 237.914 97.7619C238.206 97.7619 238.697 97.5875 239.329 97.1942C251.746 89.3579 241.414 79.7408 237.914 76.118C234.412 79.7408 224.079 89.3579 236.495 97.1942Z" fill="#FEF9ED"/>
<path d="M223.435 125.781C224.142 125.724 224.797 125.625 225.059 125.451C225.324 125.276 225.659 124.83 225.987 124.101C232.394 109.685 217.217 107.141 211.852 105.949C210.907 111.288 207.467 126.073 223.435 125.779V125.781Z" fill="#FEF9ED"/>
<path d="M203.092 122.633C203.689 122.256 204.22 121.869 204.372 121.594C204.524 121.318 204.609 120.768 204.553 119.973C203.377 104.279 188.753 109.018 183.446 110.438C185.145 115.591 189.118 130.248 203.092 122.633Z" fill="#FEF9ED"/>
<path d="M205.626 148.947C205.88 148.295 206.072 147.67 206.027 147.361C205.983 147.05 205.718 146.56 205.195 145.953C194.782 134.023 185.881 146.398 182.468 150.648C186.943 153.798 198.981 163.255 205.624 148.947H205.626Z" fill="#FEF9ED"/>
<path d="M237.912 101.171C235.172 104.218 227.086 112.3 236.8 118.888C237.249 119.15 237.682 119.365 237.912 119.365C238.143 119.365 238.525 119.218 239.02 118.888C248.736 112.3 240.652 104.216 237.912 101.171Z" fill="#FEF9ED"/>
<path d="M211.166 155.653C211.01 155.545 210.679 155.468 210.186 155.464C200.455 155.424 202.075 164.65 202.476 167.984C205.788 167.19 215.129 165.459 211.689 156.492C211.51 156.107 211.32 155.76 211.164 155.653H211.166Z" fill="#FEF9ED"/>
<path d="M236.8 139.855C237.249 140.117 237.682 140.332 237.912 140.332C238.143 140.332 238.525 140.185 239.02 139.855C248.736 133.267 240.652 125.183 237.912 122.138C235.172 125.185 227.086 133.267 236.8 139.855Z" fill="#FEF9ED"/>
<path d="M195.808 134.945C196.113 134.529 196.369 134.123 196.391 133.898C196.412 133.673 196.297 133.284 196.009 132.769C190.221 122.643 181.325 129.853 178 132.269C180.834 135.231 188.282 143.89 195.81 134.945H195.808Z" fill="#FEF9ED"/>
<path d="M205.82 107.063C206.341 107.027 206.821 106.96 207.009 106.829C207.196 106.699 207.427 106.365 207.642 105.816C211.808 94.9435 200.487 92.8493 196.475 91.8885C195.989 95.9296 194.03 107.115 205.822 107.063H205.82Z" fill="#FEF9ED"/>
<path d="M221.766 103.566C222.34 103.665 222.882 103.72 223.123 103.629C223.364 103.539 223.706 103.236 224.09 102.696C231.601 91.9831 219.864 86.691 215.763 84.5779C214.124 88.844 208.928 100.484 221.766 103.566Z" fill="#FEF9ED"/>
<path d="M250.821 125.452C251.086 125.626 251.739 125.723 252.445 125.782C268.412 126.076 264.972 111.291 264.029 105.953C258.664 107.143 243.487 109.689 249.893 124.104C250.222 124.832 250.557 125.28 250.821 125.454V125.452Z" fill="#FEF9ED"/>
<path d="M271.333 119.972C271.278 120.766 271.363 121.318 271.515 121.593C271.666 121.868 272.197 122.257 272.795 122.632C286.77 130.245 290.744 115.59 292.44 110.437C287.133 109.02 272.509 104.278 271.333 119.972Z" fill="#FEF9ED"/>
<path d="M270.681 145.953C270.158 146.56 269.894 147.052 269.849 147.361C269.804 147.67 269.998 148.295 270.252 148.947C276.895 163.255 288.933 153.798 293.408 150.648C289.996 146.398 281.097 134.023 270.681 145.953Z" fill="#FEF9ED"/>
<path d="M265.692 155.46C265.199 155.464 264.869 155.544 264.713 155.649C264.557 155.754 264.367 156.101 264.188 156.488C260.75 165.456 270.088 167.186 273.4 167.981C273.801 164.648 275.421 155.42 265.69 155.46H265.692Z" fill="#FEF9ED"/>
<path d="M279.873 132.771C279.583 133.286 279.47 133.675 279.491 133.9C279.513 134.125 279.766 134.531 280.074 134.947C287.603 143.89 295.05 135.233 297.884 132.271C294.559 129.857 285.663 122.647 279.875 132.771H279.873Z" fill="#FEF9ED"/>
<path d="M268.872 106.829C269.06 106.957 269.54 107.025 270.06 107.063C281.853 107.115 279.894 95.9296 279.407 91.8885C275.395 92.8493 264.073 94.9456 268.24 105.816C268.454 106.365 268.684 106.701 268.874 106.829H268.872Z" fill="#FEF9ED"/>
<path d="M252.759 103.629C253 103.72 253.54 103.665 254.116 103.566C266.954 100.484 261.758 88.8419 260.119 84.5779C256.02 86.691 244.283 91.9831 251.792 102.696C252.176 103.236 252.518 103.539 252.759 103.629Z" fill="#FEF9ED"/>
</g>
<defs>
<clipPath id="clip0_1_2">
<rect width="120" height="118.542" fill="white" transform="translate(178 76)"/>
</clipPath>
</defs>
</svg>
